<svg version="1.2" xmlns="http://www.w3.org/2000/svg" viewBox="0 0 48 48" width="48" height="48">
	<title>circle_FILL0_wght100_GRAD-25_opsz48-svg</title>
	<style>
		.s0 { fill: #000000 } 
	</style>
	<path id="Layer" fill-rule="evenodd" class="s0" d="m24 41.4q-3.6 0-6.8-1.4-3.1-1.3-5.5-3.7-2.4-2.4-3.7-5.5-1.4-3.2-1.4-6.8 0-3.6 1.4-6.8 1.3-3.1 3.7-5.5 2.4-2.4 5.5-3.7 3.2-1.4 6.8-1.4 3.6 0 6.8 1.4 3.1 1.3 5.5 3.7 2.4 2.3 3.7 5.5 1.4 3.2 1.4 6.8 0 3.6-1.4 6.8-1.3 3.1-3.7 5.5-2.3 2.4-5.5 3.7-3.2 1.4-6.8 1.4zm0-1.1q6.8 0 11.5-4.8 4.8-4.7 4.8-11.5 0-6.8-4.8-11.5-4.7-4.8-11.5-4.8-6.8 0-11.5 4.8-4.8 4.7-4.8 11.5 0 6.8 4.7 11.5 4.8 4.8 11.6 4.8z"/>
</svg>